<svg width="528" height="50" viewBox="0 0 528 50" fill="none" xmlns="http://www.w3.org/2000/svg">
<path d="M214.976 46.4932L214.902 49.4277H185.388V0.552455H214.902V3.48981H188.974V23.2474H210.551V26.1144H188.974V46.4932H214.976ZM267.454 46.4229V49.4277H240.545V0.552455H244.131V46.4229H267.454ZM325.868 14.75C324.735 11.6748 323.131 9.04407 321.064 6.85711C319.002 4.67016 316.526 2.9838 313.637 1.79774C310.748 0.611357 307.564 0.0181661 304.08 0.0181661C300.602 0.0181661 297.424 0.617007 294.546 1.81437C291.669 3.01174 289.198 4.6984 287.131 6.87406C285.063 9.04972 283.465 11.6748 282.327 14.75C281.188 17.8223 280.622 21.2374 280.622 24.9899C280.622 28.7678 281.188 32.1913 282.327 35.2665C283.465 38.3389 285.063 40.9643 287.131 43.1396C289.198 45.3181 291.669 46.9991 294.546 48.1824C297.424 49.3716 300.602 49.9616 304.08 49.9616C307.564 49.9616 310.748 49.3716 313.637 48.1824C316.526 46.9991 319.002 45.3181 321.064 43.1396C323.131 40.9643 324.735 38.3389 325.868 35.2665C327.006 32.1913 327.573 28.7678 327.573 24.9899C327.573 21.2374 327.006 17.8223 325.868 14.75ZM322.457 34.1956C321.506 36.9023 320.163 39.1988 318.418 41.0851C316.679 42.9739 314.594 44.4129 312.158 45.4025C309.717 46.3946 307.026 46.8896 304.08 46.8896C301.157 46.8896 298.478 46.3946 296.042 45.4025C293.606 44.4129 291.51 42.9739 289.759 41.0851C288.009 39.1988 286.649 36.9023 285.686 34.1956C284.723 31.4886 284.242 28.4222 284.242 24.9899C284.242 21.5833 284.723 18.5194 285.686 15.8014C286.649 13.0859 288.009 10.7838 289.759 8.89499C291.51 7.0062 293.606 5.5612 296.042 4.56063C298.478 3.55722 301.157 3.05694 304.08 3.05694C307.026 3.05694 309.717 3.55723 312.158 4.56063C314.594 5.5612 316.679 7.0062 318.418 8.89499C320.163 10.7838 321.506 13.0859 322.457 15.8014C323.409 18.5194 323.885 21.5833 323.885 24.9899C323.885 28.4222 323.409 31.4886 322.457 34.1956ZM384.638 41.2046C384.87 41.2046 385.069 41.2861 385.233 41.4463L386.621 42.9332C385.601 44.0154 384.491 44.988 383.301 45.8509C382.106 46.7138 380.792 47.4531 379.364 48.0631C377.937 48.673 376.373 49.1452 374.668 49.4769C372.963 49.8114 371.088 49.9801 369.048 49.9801C365.638 49.9801 362.511 49.387 359.667 48.2008C356.823 47.0146 354.382 45.3337 352.342 43.1581C350.297 40.9825 348.717 38.3515 347.589 35.2652C346.462 32.1789 345.901 28.7496 345.901 24.9718C345.901 21.2643 346.479 17.88 347.64 14.8162C348.802 11.7551 350.428 9.12418 352.512 6.92609C354.603 4.72518 357.107 3.0218 360.035 1.81313C362.958 0.604459 366.182 0.000123652 369.711 0.000123652C373.07 0.000123652 376.056 0.517322 378.65 1.55453C381.251 2.58893 383.619 4.05339 385.754 5.93947L384.672 7.49388C384.485 7.77216 384.196 7.90989 383.805 7.90989C383.528 7.90989 383.075 7.65691 382.446 7.14815C381.817 6.64219 380.95 6.08564 379.834 5.47568C378.724 4.86572 377.336 4.30637 375.676 3.80041C374.016 3.29164 372.028 3.03867 369.711 3.03867C366.737 3.03867 364.018 3.54743 361.548 4.55934C359.078 5.57125 356.954 7.02447 355.175 8.91056C353.402 10.7995 352.014 13.1015 351.017 15.8197C350.02 18.5349 349.521 21.5875 349.521 24.9718C349.521 28.4264 350.025 31.5127 351.034 34.228C352.048 36.9461 353.43 39.2426 355.197 41.1202C356.959 42.9979 359.038 44.4342 361.44 45.4377C363.842 46.4384 366.437 46.9387 369.224 46.9387C370.986 46.9387 372.555 46.8235 373.937 46.593C375.314 46.3653 376.588 46.0196 377.75 45.5586C378.905 45.0976 379.987 44.5326 380.984 43.8664C381.981 43.1975 382.967 42.416 383.941 41.5166C384.06 41.4238 384.174 41.3507 384.293 41.2917C384.406 41.2355 384.525 41.2046 384.638 41.2046ZM412.734 49.4277H409.148V0.552455H412.734V49.4277ZM474.069 3.56008H456.768V49.4277H453.182V3.56008H435.78V0.552455H474.069V3.56008ZM509.765 29.2907V49.4277H506.213V29.2907L487.977 0.552455H491.11C491.433 0.552455 491.699 0.628351 491.909 0.777324C492.119 0.92911 492.294 1.13993 492.43 1.4182L506.53 23.8686C506.83 24.397 507.108 24.9114 507.363 25.4061C507.618 25.9008 507.839 26.3899 508.026 26.8734C508.213 26.3899 508.417 25.9008 508.649 25.4061C508.881 24.9114 509.147 24.397 509.453 23.8686L523.548 1.4182C523.661 1.16523 523.831 0.957222 524.052 0.794189C524.273 0.633969 524.545 0.552455 524.873 0.552455H528L509.765 29.2907ZM164.389 0.000123652L149.164 49.9801H146.079L161.302 0.000123652H164.389ZM138.356 18.401L132.751 0H129.664L136.813 23.467L138.356 18.401ZM21.5731 42.824V24.2186C21.057 24.5199 20.723 24.7006 20.6775 24.7257C20.2777 24.9467 19.8121 25.0672 19.3415 25.0672C18.3598 25.0672 17.4439 24.55 16.9531 23.7114C16.9531 23.7114 13.4564 17.7004 13.4412 17.6652C12.7935 16.3144 13.3855 14.6773 14.767 14.0295C18.6837 12.1965 22.3777 11.3077 26.0465 11.3077C27.2306 11.3077 28.4097 11.4031 29.5837 11.5889C33.6825 12.2769 37.0072 13.9491 39.9422 15.4255C42.3054 16.6307 44.6584 17.8359 46.6269 17.8359C47.8566 17.8359 48.8788 17.389 49.8503 16.4198C50.7258 15.546 51.2116 14.381 51.2116 13.1507C51.2116 10.6047 49.1217 8.53069 46.5561 8.53069C45.5592 8.53069 44.5724 8.85208 43.783 9.43963L43.1758 9.89659L40.9796 7.72219L41.6475 7.10452C43.1909 5.67835 45.205 4.88994 47.3101 4.88994C49.5366 4.88994 51.6215 5.74865 53.1902 7.31041C55.2143 9.3894 56.2365 12.2217 56.0189 15.0891C55.6849 19.6337 52.3906 24.3541 46.4953 28.7331C43.277 31.1184 42.0473 35.417 41.5817 38.6008L41.5362 38.9121L41.3034 39.123C40.0434 40.2579 38.6063 41.1568 37.0224 41.7896L36.152 42.1411L35.8585 41.2522C35.2158 39.3239 33.5611 37.953 31.542 37.6768C31.2941 37.6466 31.0562 37.6316 30.8184 37.6316C28.2376 37.6316 25.9959 39.5449 25.6012 42.0808L25.4848 42.824H21.5731Z" fill="white"/>
<path d="M104.067 43.9629V47.9875C104.067 49.0992 103.159 50 102.039 50H72.0598C70.9402 50 70.0322 49.0992 70.0322 47.9875V2.01217C70.0322 0.900799 70.9402 2.68809e-05 72.0598 2.68809e-05H101.467C102.587 2.68809e-05 103.495 0.900799 103.495 2.01217V6.03676C103.495 7.14844 102.587 8.04921 101.467 8.04921H78.1433V20.9754H96.9579C98.0778 20.9754 98.9858 21.8762 98.9858 22.9875V27.0121C98.9858 28.1238 98.0778 29.0246 96.9579 29.0246H78.1433V41.9508H102.039C103.159 41.9508 104.067 42.8516 104.067 43.9629ZM154.687 2.68809e-05H149.904C149.01 2.68809e-05 148.222 0.580976 147.963 1.42996L136.79 38.1173L125.616 1.42996C125.358 0.580976 124.57 2.68809e-05 123.676 2.68809e-05H118.893C117.805 2.68809e-05 117.025 1.04203 117.34 2.07556L131.5 48.5697C131.758 49.419 132.547 50 133.441 50H140.139C141.033 50 141.822 49.419 142.08 48.5697L156.24 2.07556C156.555 1.04204 155.775 2.68809e-05 154.687 2.68809e-05ZM2.82904 20.7755H0V17.9677H2.82904V20.7755ZM5.62899 28.851H9.30659V25.2015H5.62899V28.851ZM5.86872 10.673H3.06878V13.4516H5.86873L5.86872 10.673ZM56.8007 15.1496C56.6043 17.8845 55.4199 20.601 53.3325 23.2775V28.5353C53.3325 40.39 43.6486 50 31.7027 50H9.55107V46.7456H12.3124V43.7498H7.65914V39.1528H4.80763V35.2396H8.75059V37.5H11.6391V31.2498H14.3426V25H12.3124V18.7498H9.40179V12.5H13.957V6.24984H7.4232V2.32254H10.4515V0H31.7027C36.7014 0 41.281 1.70833 44.9421 4.53524C47.9831 3.7054 51.3599 4.44391 53.7383 6.80694C55.9148 9.02497 57.0297 12.0619 56.8007 15.1496ZM22.4543 10.8843C30.1738 9.69066 35.8914 12.576 40.3565 14.8185C41.8386 15.5676 43.079 16.1665 44.1755 16.5714C42.196 11.6077 37.4006 8.04919 31.7027 8.04919H22.4543V10.8843ZM35.1586 41.4483C34.4966 39.4246 32.4659 38.0844 30.2599 38.36C28.3132 38.6035 26.7986 40.0689 26.408 41.9508H31.7027C32.9061 41.9508 34.0504 41.7433 35.1586 41.4483ZM55.1384 15.0256C55.3437 12.4049 54.4091 9.82248 52.5706 7.93024C49.7434 5.11964 45.1809 5.03584 42.2513 7.74098L43.258 8.7403C44.2112 8.03412 45.3694 7.65435 46.5589 7.65812C49.616 7.65781 52.0946 10.1163 52.0949 13.15C52.0952 14.6072 51.512 16.0052 50.4734 17.0356C47.3632 20.1399 43.7767 18.366 39.6237 16.2434C36.7222 14.783 33.4393 13.1214 29.4414 12.4535C24.8121 11.7084 20.1351 12.489 15.1418 14.8185C14.2012 15.2579 13.7973 16.3711 14.2404 17.3048C14.2667 17.3598 17.7153 23.2662 17.7159 23.2675C18.2324 24.1476 19.3637 24.4551 20.26 23.9592C20.2603 23.9592 24.0053 21.943 26.4147 19.7674C26.7439 19.4701 27.2534 19.494 27.5526 19.8204C27.8521 20.1471 27.8281 20.6528 27.4991 20.9497C25.982 22.2908 22.6254 24.5625 22.6254 24.5625L22.4543 24.6563V41.9508H24.7305C25.2441 38.6547 28.3176 36.3585 31.661 36.8104C34.0368 37.1318 35.9679 38.7802 36.6931 40.9816C38.1853 40.385 39.5418 39.5316 40.7133 38.4729C41.2171 35.0133 42.5306 30.5838 45.9691 28.0331C51.6591 23.8055 54.8284 19.3179 55.1384 15.0256ZM38.7182 19.3716C37.8428 19.3747 37.1359 20.0815 37.1391 20.95L39.6715 22.2095C40.0766 21.9113 40.3107 21.4387 40.3091 20.9384C40.3056 20.0699 39.5934 19.3681 38.7182 19.3716ZM1.18918 47.5199H4.46859V44.2655H1.18918V47.5199Z" fill="url(#paint0_linear_3_14772)"/>
<defs>
<linearGradient id="paint0_linear_3_14772" x1="72.555" y1="51.3755" x2="79.6969" y2="-2.41133" gradientUnits="userSpaceOnUse">
<stop stop-color="#209BC4"/>
<stop offset="1" stop-color="#4DC9C0"/>
</linearGradient>
</defs>
</svg>
